<svg width="103" height="78" viewBox="0 0 103 78" fill="none" xmlns="http://www.w3.org/2000/svg">
<path d="M26.6687 50.3974L34.9637 26.7735H66.7771L76.2263 50.3974H26.6687Z" fill="#FFCC00"/>
<path d="M0 77.6961L8.1896 53.9672H40.1081L49.4526 77.6961H0Z" fill="#FFCC00"/>
<path d="M53.4424 77.6961L61.7374 53.9672H93.5508L103 77.6961H53.4424Z" fill="#FFCC00"/>
<path d="M74.3363 4.93477C73.7065 4.51511 72.8665 4.51511 72.2366 4.83004L72.1319 4.93477C71.7122 5.14497 71.5021 5.4599 71.2919 5.77482L66.1469 14.2792C65.9367 14.8043 65.7273 15.4342 65.9367 16.064C66.1469 16.6939 66.4618 17.219 66.987 17.4292C67.7223 17.8489 68.6671 17.8489 69.2969 17.4292C69.7165 17.219 69.9267 16.9041 70.1369 16.5891L75.2818 8.08475C75.492 7.55963 75.7015 6.92977 75.492 6.29993C75.2811 5.77481 74.8615 5.24968 74.3363 4.93477H74.3363Z" fill="#FFCC00"/>
<path d="M27.8236 4.93477C28.4535 4.51511 29.2935 4.51511 29.9233 4.83004L30.0281 4.93477C30.4477 5.14497 30.6579 5.4599 30.8681 5.77482L36.013 14.2792C36.2232 14.8043 36.4327 15.4342 36.2232 16.064C36.1185 16.6939 35.6981 17.219 35.173 17.4292C34.4377 17.8489 33.4929 17.8489 32.8631 17.4292C32.4434 17.219 32.2333 16.9041 32.0231 16.5891L26.8781 8.08475C26.6679 7.55963 26.4585 6.92977 26.6679 6.29993C26.8788 5.77481 27.2985 5.24968 27.8236 4.93477H27.8236Z" fill="#FFCC00"/>
<path d="M17.1142 28.0335C17.3244 28.0335 17.5339 28.0335 17.7441 27.9287C18.3739 27.824 18.899 27.4036 19.1092 26.8785C19.7391 25.7235 19.3194 24.3584 18.2692 23.7285L9.55459 18.6889C9.13492 18.4787 8.81926 18.2692 8.3996 18.2692L8.29414 18.2685C7.55882 18.2685 6.92898 18.7936 6.40461 19.4235C6.19441 19.9486 5.98495 20.5785 6.19441 21.2083C6.29914 21.8382 6.71954 22.3633 7.24466 22.5735L15.9592 27.613C16.3789 27.928 16.7986 28.0334 17.1142 28.0334L17.1142 28.0335Z" fill="#FFCC00"/>
<path d="M96.4903 19.6339C96.0707 19.004 95.4401 18.4789 94.6008 18.4789H94.4961C94.0764 18.4789 93.7608 18.5836 93.3411 18.8985L84.6265 23.9381C84.1014 24.1483 83.7865 24.6734 83.4715 25.3033C83.3668 25.9331 83.3668 26.563 83.6817 27.0881C84.1014 27.8234 84.8367 28.2431 85.6768 28.2431C86.0965 28.2431 86.4121 28.1383 86.8318 28.0329L95.5464 22.9933C96.0715 22.7831 96.3864 22.258 96.5966 21.6281C96.8054 20.6841 96.8054 20.0535 96.4904 19.6338L96.4903 19.6339Z" fill="#FFCC00"/>
<path d="M51.4475 2.14566e-05C50.7122 2.14566e-05 49.9776 0.419682 49.558 1.05027L49.4532 1.155C49.243 1.57466 49.243 1.89032 49.243 2.30998L49.1383 12.3899C49.1383 13.0197 49.3485 13.5449 49.7682 14.07C50.1878 14.5951 50.8184 14.8053 51.4483 14.8053C52.2883 14.8053 53.1283 14.3856 53.4433 13.6503C53.6535 13.2306 53.863 12.915 53.863 12.4953L53.7575 2.41468C53.7575 1.78482 53.5473 1.2597 53.1277 0.734589C52.4978 0.209465 52.0774 0 51.4476 0L51.4475 2.14566e-05Z" fill="#FFCC00"/>
</svg>
