<svg width="390" height="868" viewBox="0 0 390 868" fill="none" xmlns="http://www.w3.org/2000/svg">
<rect x="-610" y="9" width="1728" height="597" fill="url(#paint0_linear_11_255)"/>
<mask id="mask0_11_255" style="mask-type:alpha" maskUnits="userSpaceOnUse" x="-610" y="9" width="1728" height="597">
<rect x="-610" y="9" width="1728" height="597" fill="url(#paint1_linear_11_255)"/>
</mask>
<g mask="url(#mask0_11_255)">
<g filter="url(#filter0_f_11_255)">
<ellipse cx="91.2125" cy="642.72" rx="515.972" ry="143.545" fill="#8A96FF"/>
</g>
<g filter="url(#filter1_f_11_255)">
<ellipse rx="365.095" ry="107.401" transform="matrix(-0.999676 -0.0254705 0.145367 -0.989378 1046.94 56.1558)" fill="#838FFF"/>
</g>
</g>
<rect x="-682" width="1920" height="868" fill="#7461FF"/>
<mask id="mask1_11_255" style="mask-type:alpha" maskUnits="userSpaceOnUse" x="-682" y="0" width="1920" height="868">
<rect x="-682" width="1920" height="868" fill="url(#paint2_linear_11_255)"/>
</mask>
<g mask="url(#mask1_11_255)">
<g filter="url(#filter2_f_11_255)">
<ellipse cx="979.23" cy="217.734" rx="261.157" ry="182.587" transform="rotate(-176.499 979.23 217.734)" fill="#563FFF"/>
</g>
<g filter="url(#filter3_f_11_255)">
<ellipse cx="55.9207" cy="726.23" rx="368.512" ry="176.714" fill="#3E24FF"/>
</g>
<ellipse cx="-506.128" cy="49.504" rx="195.61" ry="290.745" transform="rotate(95.0627 -506.128 49.504)" fill="#8C85FF"/>
<g filter="url(#filter5_b_11_255)">
<path fill-rule="evenodd" clip-rule="evenodd" d="M1301.8 39.747L1286.64 90.2539L1286.44 90.7419C1254.53 166.803 1188.78 178.573 1126.94 189.644C1124.99 189.993 1123.05 190.34 1121.11 190.689C1088.74 196.52 1057.56 202.632 1029.93 216.812C1002.73 230.772 978.702 252.732 961.324 291.007C952.265 310.961 944.369 330.756 936.575 350.296L936.554 350.348C928.797 369.794 921.124 389.031 912.625 407.492C895.578 444.52 874.926 479.08 842.393 507.834C777.201 565.454 667.122 597.386 451.73 586.862C351.994 581.988 296.781 612.675 262.992 650.888C235.49 681.992 221.681 718.275 210.149 748.577C207.158 756.435 204.32 763.89 201.437 770.749L183 762.998C185.484 757.088 188.045 750.332 190.835 742.969C202.361 712.556 217.808 671.795 248.009 637.64C286.367 594.26 347.78 561.759 452.706 566.885C666.818 577.347 770.056 545.077 829.148 492.849C858.755 466.68 877.987 434.904 894.458 399.128C902.71 381.204 910.198 362.44 917.998 342.886L918.067 342.714C925.815 323.288 933.858 303.125 943.113 282.74C962.418 240.218 989.723 214.969 1020.8 199.018C1051.45 183.287 1085.48 176.785 1117.56 171.006C1118.69 170.804 1119.81 170.602 1120.93 170.401C1184.75 158.922 1240.07 148.972 1267.79 83.4856L1282.64 34L1301.8 39.747Z" fill="white" fill-opacity="0.1"/>
</g>
<rect x="51.7473" y="627.734" width="94.8913" height="94.8913" rx="10" transform="rotate(-22.4719 51.7473 627.734)" fill="#7D75FF"/>
<circle cx="90.599" cy="662.909" r="8.32973" transform="rotate(-22.2604 90.599 662.909)" fill="white"/>
<circle cx="113.726" cy="653.442" r="8.32973" transform="rotate(-22.2604 113.726 653.442)" fill="white"/>
<circle cx="136.852" cy="643.976" r="8.32973" transform="rotate(-22.2604 136.852 643.976)" fill="white"/>
</g>
<defs>
<filter id="filter0_f_11_255" x="-724.759" y="199.175" width="1631.94" height="887.089" filterUnits="userSpaceOnUse" color-interpolation-filters="sRGB">
<feFlood flood-opacity="0" result="BackgroundImageFix"/>
<feBlend mode="normal" in="SourceGraphic" in2="BackgroundImageFix" result="shape"/>
<feGaussianBlur stdDeviation="150" result="effect1_foregroundBlur_11_255"/>
</filter>
<filter id="filter1_f_11_255" x="281.628" y="-450.517" width="1530.63" height="1013.35" filterUnits="userSpaceOnUse" color-interpolation-filters="sRGB">
<feFlood flood-opacity="0" result="BackgroundImageFix"/>
<feBlend mode="normal" in="SourceGraphic" in2="BackgroundImageFix" result="shape"/>
<feGaussianBlur stdDeviation="200" result="effect1_foregroundBlur_11_255"/>
</filter>
<filter id="filter2_f_11_255" x="318.317" y="-365.22" width="1321.83" height="1165.91" filterUnits="userSpaceOnUse" color-interpolation-filters="sRGB">
<feFlood flood-opacity="0" result="BackgroundImageFix"/>
<feBlend mode="normal" in="SourceGraphic" in2="BackgroundImageFix" result="shape"/>
<feGaussianBlur stdDeviation="200" result="effect1_foregroundBlur_11_255"/>
</filter>
<filter id="filter3_f_11_255" x="-612.591" y="249.516" width="1337.02" height="953.428" filterUnits="userSpaceOnUse" color-interpolation-filters="sRGB">
<feFlood flood-opacity="0" result="BackgroundImageFix"/>
<feBlend mode="normal" in="SourceGraphic" in2="BackgroundImageFix" result="shape"/>
<feGaussianBlur stdDeviation="150" result="effect1_foregroundBlur_11_255"/>
</filter>
<filter id="filter5_b_11_255" x="179" y="30" width="1126.8" height="744.749" filterUnits="userSpaceOnUse" color-interpolation-filters="sRGB">
<feFlood flood-opacity="0" result="BackgroundImageFix"/>
<feGaussianBlur in="BackgroundImageFix" stdDeviation="2"/>
<feComposite in2="SourceAlpha" operator="in" result="effect1_backgroundBlur_11_255"/>
<feBlend mode="normal" in="SourceGraphic" in2="effect1_backgroundBlur_11_255" result="shape"/>
</filter>
<linearGradient id="paint0_linear_11_255" x1="555.321" y1="-15.0736" x2="287.861" y2="1018.57" gradientUnits="userSpaceOnUse">
<stop stop-color="#E5E1FF"/>
<stop offset="0.447896" stop-color="#A094FF"/>
<stop offset="0.994104" stop-color="#C2BAFF"/>
</linearGradient>
<linearGradient id="paint1_linear_11_255" x1="254" y1="9" x2="254" y2="606" gradientUnits="userSpaceOnUse">
<stop offset="0.03125" stop-color="white"/>
<stop offset="0.505208" stop-color="#F5F3FF"/>
<stop offset="0.9999" stop-color="white" stop-opacity="0.645833"/>
</linearGradient>
<linearGradient id="paint2_linear_11_255" x1="278" y1="0" x2="278" y2="868" gradientUnits="userSpaceOnUse">
<stop offset="0.03125" stop-color="white"/>
<stop offset="0.505208" stop-color="#F5F3FF"/>
<stop offset="0.9999" stop-color="white" stop-opacity="0.645833"/>
</linearGradient>
</defs>
</svg>
