<svg width="175" height="32" viewBox="0 0 175 32" fill="none" xmlns="http://www.w3.org/2000/svg">
<path d="M76.585 1.88118V14.5639H72.9266V1.88118H76.585Z" fill="white"/>
<path d="M81.1213 6.75602C81.4812 6.25033 81.901 5.88623 82.3608 5.62328C82.8206 5.36032 83.3603 5.23895 84 5.23895C85.0395 5.23895 85.8192 5.56259 86.3389 6.18965C86.8587 6.83693 87.1186 7.66626 87.1186 8.69787V14.5639H83.8001V9.5272C83.8001 9.06196 83.7002 8.67764 83.5002 8.39445C83.3003 8.11127 82.9805 7.96967 82.5607 7.96967C82.1409 7.96967 81.801 8.13149 81.5611 8.45513C81.3212 8.77878 81.2013 9.18333 81.2013 9.68902V14.5639H77.8828V5.52214H81.0414V6.75602H81.1213Z" fill="white"/>
<path d="M88.7171 5.5221V5.01641C88.7171 3.98481 88.977 3.23639 89.4968 2.7307C89.7167 2.52842 89.9765 2.3666 90.2764 2.24524C90.5963 2.12387 90.9361 2.04296 91.3159 1.98228C91.6957 1.92159 92.0956 1.90137 92.5154 1.90137C92.9352 1.90137 93.355 1.92159 93.7748 1.98228V4.20731C93.5149 4.20731 93.275 4.20731 93.0751 4.20731C92.8552 4.20731 92.6753 4.24776 92.5154 4.32867C92.3554 4.40958 92.2355 4.51072 92.1555 4.65232C92.0756 4.79391 92.0156 5.01641 92.0156 5.27937V5.50187H93.7748V7.52463H92.0156V14.5638H88.6971V7.54486H87.5977V5.5221H88.7171V5.5221Z" fill="white"/>
<path d="M100.474 13.3907H100.414C100.074 13.8559 99.6741 14.22 99.2343 14.4627C98.7945 14.7055 98.2548 14.8268 97.6351 14.8268C97.0953 14.8268 96.6355 14.7459 96.2357 14.5639C95.8359 14.402 95.5161 14.1593 95.2562 13.8559C94.9963 13.5525 94.7964 13.1884 94.6565 12.7636C94.5165 12.3388 94.4565 11.8736 94.4565 11.3477V5.52214H97.775V10.5588C97.775 11.5095 98.1748 11.995 98.9745 11.995C99.4143 11.995 99.7341 11.8534 99.974 11.5702C100.214 11.287 100.334 10.9027 100.334 10.397V5.52214H103.652V14.5639H100.494V13.3907H100.474Z" fill="white"/>
<path d="M106.972 14.6448C106.432 14.5032 105.952 14.3009 105.552 14.0177C105.153 13.7548 104.853 13.4109 104.633 13.0063C104.413 12.6018 104.293 12.1366 104.293 11.6309H107.471C107.491 12.0152 107.611 12.2984 107.851 12.5006C108.071 12.7029 108.411 12.8041 108.831 12.8041C109.151 12.8041 109.431 12.7434 109.651 12.622C109.87 12.5006 109.97 12.2984 109.97 12.0354C109.97 11.8534 109.91 11.6915 109.79 11.5904C109.67 11.469 109.511 11.3881 109.311 11.3274C109.111 11.2668 108.891 11.2061 108.611 11.1656C108.351 11.1252 108.071 11.0847 107.771 11.024C107.392 10.9634 107.012 10.8824 106.632 10.8015C106.252 10.7004 105.892 10.5588 105.592 10.3565C105.293 10.1542 105.033 9.87106 104.833 9.50697C104.633 9.14287 104.533 8.69787 104.533 8.13149C104.533 7.66626 104.633 7.26171 104.853 6.89761C105.073 6.53352 105.372 6.2301 105.732 5.98737C106.112 5.74464 106.532 5.56259 107.032 5.421C107.531 5.29964 108.051 5.23895 108.591 5.23895C109.95 5.23895 110.99 5.48168 111.71 5.96714C112.409 6.45261 112.789 7.14034 112.849 8.03036H109.73C109.69 7.68649 109.551 7.46398 109.331 7.36285C109.111 7.26171 108.871 7.22125 108.611 7.22125C108.371 7.22125 108.151 7.26171 107.951 7.36285C107.751 7.46398 107.671 7.6258 107.671 7.86854C107.671 7.9899 107.711 8.11127 107.811 8.19218C107.911 8.27309 108.031 8.33377 108.211 8.39445C108.371 8.45513 108.571 8.49559 108.791 8.53604C109.011 8.5765 109.251 8.61696 109.511 8.63718C109.91 8.69787 110.35 8.77878 110.79 8.85969C111.23 8.9406 111.63 9.10242 111.989 9.32492C112.349 9.54742 112.649 9.85084 112.869 10.2352C113.089 10.6195 113.229 11.1252 113.229 11.7522C113.229 12.2984 113.109 12.7636 112.889 13.1479C112.669 13.5323 112.349 13.8559 111.949 14.1189C111.55 14.3818 111.09 14.5639 110.55 14.6852C110.01 14.8066 109.451 14.8673 108.831 14.8673C108.131 14.8673 107.531 14.7864 106.972 14.6448Z" fill="white"/>
<path d="M117.287 1.88116V4.40961H113.969V1.88116H117.287ZM117.287 5.52213V14.5638H113.969V5.52213H117.287Z" fill="white"/>
<path d="M121.004 14.4829C120.405 14.2402 119.885 13.9166 119.465 13.4918C119.045 13.067 118.706 12.5613 118.466 11.9747C118.226 11.3881 118.106 10.7611 118.106 10.0733C118.106 9.38558 118.226 8.75853 118.466 8.17193C118.706 7.58533 119.025 7.07964 119.465 6.65486C119.885 6.23008 120.405 5.88622 121.004 5.64348C121.604 5.40075 122.284 5.27939 123.024 5.27939C123.763 5.27939 124.443 5.40075 125.043 5.64348C125.642 5.88622 126.162 6.23008 126.582 6.65486C127.002 7.07964 127.322 7.58533 127.561 8.17193C127.781 8.75853 127.901 9.38558 127.901 10.0733C127.901 10.7611 127.781 11.3881 127.561 11.9747C127.342 12.5613 127.002 13.067 126.582 13.4918C126.162 13.9166 125.642 14.2604 125.043 14.4829C124.443 14.7257 123.763 14.847 123.024 14.847C122.284 14.847 121.604 14.7257 121.004 14.4829ZM124.143 11.914C124.403 11.4488 124.523 10.8217 124.523 10.0531C124.523 9.28445 124.403 8.67762 124.143 8.19216C123.883 7.72692 123.503 7.48419 122.984 7.48419C122.464 7.48419 122.084 7.72692 121.844 8.19216C121.604 8.65739 121.484 9.28445 121.484 10.0531C121.484 10.8217 121.604 11.4286 121.844 11.914C122.084 12.3793 122.464 12.622 122.984 12.622C123.503 12.6018 123.883 12.3793 124.143 11.914Z" fill="white"/>
<path d="M131.919 6.756C132.279 6.25032 132.699 5.88622 133.159 5.62326C133.618 5.3603 134.158 5.23894 134.798 5.23894C135.837 5.23894 136.617 5.56258 137.137 6.18963C137.657 6.83691 137.916 7.66624 137.916 8.69785V14.5638H134.598V9.52718C134.598 9.06195 134.498 8.67762 134.298 8.39444C134.098 8.11125 133.778 7.96966 133.359 7.96966C132.939 7.96966 132.599 8.13148 132.359 8.45512C132.119 8.77876 131.999 9.18331 131.999 9.689V14.5638H128.681V5.52212H131.839V6.756H131.919Z" fill="white"/>
<path d="M76.585 16.9102V29.5727H72.9266V16.9102H76.585Z" fill="white"/>
<path d="M81.1213 21.7649C81.4812 21.2592 81.901 20.8951 82.3608 20.6321C82.8206 20.3692 83.3603 20.2478 84 20.2478C85.0395 20.2478 85.8192 20.5714 86.3389 21.1985C86.8587 21.8458 87.1186 22.6751 87.1186 23.7067V29.5525H83.8001V24.5158C83.8001 24.0506 83.7002 23.6663 83.5002 23.3831C83.3003 23.0999 82.9805 22.9583 82.5607 22.9583C82.1409 22.9583 81.801 23.1201 81.5611 23.4438C81.3212 23.7674 81.2013 24.1719 81.2013 24.6776V29.5525H77.8828V20.5108H81.0414V21.7446H81.1213V21.7649Z" fill="white"/>
<path d="M90.7983 20.531L91.8178 24.0101C91.8778 24.2528 91.9378 24.4956 92.0177 24.7383C92.0977 25.0013 92.1577 25.2238 92.2176 25.4463C92.2776 25.689 92.3376 25.952 92.4175 26.1947H92.4575C92.5175 25.952 92.5775 25.689 92.6574 25.4463C92.7174 25.2238 92.7774 25.0013 92.8573 24.7383C92.9373 24.4753 92.9973 24.2326 93.0772 24.0101L94.0968 20.531H97.3553L94.2967 29.5727H90.4185L87.3599 20.531H90.7983Z" fill="white"/>
<path d="M100.016 29.4716C99.4161 29.2288 98.9164 28.9052 98.4766 28.4804C98.0368 28.0556 97.7169 27.5499 97.477 26.9633C97.2371 26.3767 97.1172 25.7295 97.1172 25.0417C97.1172 24.354 97.2371 23.7269 97.477 23.1403C97.7169 22.5537 98.0368 22.0481 98.4566 21.6233C98.8764 21.1985 99.3762 20.8546 99.9559 20.6119C100.536 20.3692 101.175 20.2478 101.875 20.2478C102.575 20.2478 103.194 20.3489 103.734 20.5714C104.274 20.7939 104.754 21.0974 105.154 21.4615C105.693 21.9671 106.113 22.6144 106.353 23.3831C106.613 24.1517 106.733 24.981 106.713 25.8913H100.356C100.456 26.4172 100.636 26.842 100.915 27.1252C101.195 27.4286 101.595 27.5702 102.095 27.5702C102.675 27.5702 103.094 27.3477 103.334 26.9027H106.533C106.433 27.3072 106.253 27.7118 105.953 28.0961C105.653 28.4804 105.293 28.8041 104.834 29.0872C104.434 29.3502 103.994 29.5525 103.534 29.6738C103.074 29.7952 102.555 29.8559 101.975 29.8559C101.275 29.8154 100.616 29.6941 100.016 29.4716ZM100.895 22.9178C100.636 23.201 100.456 23.6056 100.376 24.091H103.454C103.374 23.5853 103.214 23.1808 102.955 22.8976C102.695 22.6144 102.355 22.4728 101.975 22.4728C101.495 22.4931 101.135 22.6347 100.895 22.9178Z" fill="white"/>
<path d="M109.71 29.6536C109.17 29.512 108.69 29.3097 108.29 29.0265C107.89 28.7434 107.591 28.4197 107.371 28.0152C107.151 27.6106 107.031 27.1454 107.031 26.6397H110.209C110.229 27.024 110.349 27.3072 110.589 27.5095C110.809 27.7118 111.149 27.8129 111.569 27.8129C111.889 27.8129 112.169 27.7522 112.388 27.6308C112.608 27.5095 112.708 27.3072 112.708 27.0442C112.708 26.8622 112.648 26.7004 112.528 26.5992C112.408 26.4779 112.248 26.397 112.049 26.3363C111.849 26.2756 111.629 26.2149 111.349 26.1745C111.089 26.134 110.809 26.0935 110.509 26.0329C110.129 25.9722 109.75 25.8913 109.37 25.8104C108.99 25.7092 108.63 25.5676 108.33 25.3654C108.03 25.1631 107.771 24.8799 107.571 24.5158C107.371 24.1517 107.271 23.7067 107.271 23.1403C107.271 22.6751 107.371 22.2705 107.591 21.9064C107.811 21.5424 108.11 21.2389 108.47 20.9962C108.85 20.7535 109.27 20.5714 109.77 20.4298C110.269 20.3085 110.789 20.2478 111.329 20.2478C112.688 20.2478 113.728 20.4905 114.447 20.976C115.147 21.4614 115.527 22.1492 115.587 23.0392H112.468C112.428 22.6953 112.288 22.4728 112.069 22.3717C111.849 22.2705 111.609 22.2301 111.349 22.2301C111.109 22.2301 110.889 22.2705 110.689 22.3717C110.489 22.4728 110.409 22.6346 110.409 22.8774C110.409 22.9987 110.449 23.1201 110.549 23.201C110.649 23.2819 110.769 23.3426 110.949 23.4033C111.109 23.464 111.309 23.5044 111.529 23.5449C111.749 23.5853 111.989 23.6258 112.248 23.646C112.648 23.7067 113.088 23.7876 113.528 23.8685C113.968 23.9697 114.367 24.1112 114.727 24.3338C115.087 24.5563 115.387 24.8597 115.607 25.244C115.847 25.6283 115.967 26.134 115.967 26.7611C115.967 27.3072 115.847 27.7724 115.627 28.1568C115.407 28.5411 115.087 28.8647 114.687 29.1277C114.288 29.3906 113.828 29.5727 113.288 29.6941C112.748 29.8154 112.188 29.8761 111.569 29.8761C110.869 29.8761 110.269 29.7952 109.71 29.6536Z" fill="white"/>
<path d="M117.148 20.531V17.6182H120.386V20.5512H122.085V22.574H120.386V26.2352C120.386 26.4577 120.426 26.6397 120.506 26.7611C120.586 26.8824 120.686 26.9836 120.846 27.024C121.006 27.0645 121.166 27.1049 121.366 27.1049C121.566 27.1049 121.806 27.1049 122.065 27.0847V29.5323C121.806 29.5929 121.546 29.6334 121.286 29.6738C121.026 29.7143 120.746 29.7345 120.446 29.7345C119.906 29.7345 119.427 29.6941 119.007 29.5929C118.607 29.512 118.267 29.3502 117.987 29.1479C117.727 28.9254 117.508 28.6422 117.368 28.2984C117.228 27.9545 117.148 27.4893 117.148 26.9431V22.5335H115.988V20.5108H117.148V20.531Z" fill="white"/>
<path d="M126.084 20.531V21.8862H126.144C126.464 21.3603 126.844 20.9558 127.283 20.6726C127.723 20.3894 128.303 20.2478 128.983 20.2478C129.582 20.2478 130.082 20.3894 130.522 20.6726C130.962 20.9558 131.281 21.3401 131.521 21.8256H131.581C131.961 21.2187 132.401 20.8142 132.901 20.5917C133.401 20.3692 133.92 20.2478 134.52 20.2478C135.06 20.2478 135.54 20.3489 135.939 20.531C136.339 20.713 136.659 20.976 136.919 21.2996C137.179 21.6233 137.359 22.0076 137.479 22.4526C137.599 22.8976 137.659 23.3831 137.659 23.8888V29.5727H134.34V24.4956C134.34 24.0304 134.26 23.6663 134.08 23.3831C133.92 23.0999 133.62 22.9583 133.201 22.9583C132.801 22.9583 132.481 23.1201 132.281 23.4438C132.061 23.7674 131.961 24.1719 131.961 24.6776V29.5525H128.643V24.4754C128.643 24.0101 128.563 23.646 128.383 23.3628C128.223 23.0797 127.923 22.9381 127.503 22.9381C127.103 22.9381 126.784 23.0999 126.584 23.4235C126.364 23.7472 126.264 24.1517 126.264 24.6574V29.5322H122.945V20.4905H126.084V20.531Z" fill="white"/>
<path d="M141.274 29.4716C140.674 29.2288 140.174 28.9052 139.734 28.4804C139.295 28.0556 138.975 27.5499 138.735 26.9633C138.495 26.3767 138.375 25.7295 138.375 25.0417C138.375 24.354 138.495 23.7269 138.735 23.1403C138.975 22.5537 139.295 22.0481 139.714 21.6233C140.134 21.1985 140.634 20.8546 141.214 20.6119C141.793 20.3692 142.433 20.2478 143.133 20.2478C143.832 20.2478 144.452 20.3489 144.992 20.5714C145.532 20.7939 146.011 21.0974 146.411 21.4615C146.951 21.9671 147.371 22.6144 147.611 23.3831C147.871 24.1517 147.991 24.981 147.971 25.8913H141.594C141.693 26.4172 141.873 26.842 142.153 27.1252C142.433 27.4286 142.833 27.5702 143.333 27.5702C143.912 27.5702 144.332 27.3477 144.572 26.9027H147.771C147.671 27.3072 147.491 27.7118 147.191 28.0961C146.891 28.4804 146.531 28.8041 146.071 29.0872C145.672 29.3502 145.232 29.5525 144.772 29.6738C144.312 29.7952 143.792 29.8559 143.213 29.8559C142.533 29.8154 141.873 29.6941 141.274 29.4716ZM142.153 22.9178C141.893 23.201 141.713 23.6056 141.633 24.091H144.712C144.652 23.5853 144.472 23.1808 144.212 22.8976C143.952 22.6144 143.613 22.4728 143.233 22.4728C142.753 22.4931 142.393 22.6347 142.153 22.9178Z" fill="white"/>
<path d="M152.03 21.7649C152.39 21.2592 152.81 20.8951 153.27 20.6321C153.729 20.3692 154.269 20.2478 154.909 20.2478C155.948 20.2478 156.728 20.5714 157.248 21.1985C157.768 21.8458 158.028 22.6751 158.028 23.7067V29.5525H154.729V24.5158C154.729 24.0506 154.629 23.6662 154.429 23.3831C154.229 23.0999 153.909 22.9583 153.49 22.9583C153.07 22.9583 152.73 23.1201 152.49 23.4437C152.25 23.7674 152.13 24.1719 152.13 24.6776V29.5525H148.812V20.5107H151.97V21.7446H152.03V21.7649Z" fill="white"/>
<path d="M159.667 20.531V17.6182H162.905V20.5512H164.604V22.5739H162.905V26.2351C162.905 26.4576 162.945 26.6397 163.025 26.761C163.105 26.8824 163.205 26.9836 163.365 27.024C163.505 27.0847 163.685 27.1049 163.885 27.1049C164.085 27.1049 164.325 27.1049 164.584 27.0847V29.5322C164.325 29.5929 164.065 29.6334 163.805 29.6738C163.545 29.7143 163.265 29.7345 162.965 29.7345C162.425 29.7345 161.946 29.694 161.526 29.5929C161.126 29.512 160.786 29.3502 160.506 29.1479C160.246 28.9254 160.027 28.6422 159.887 28.2983C159.747 27.9545 159.667 27.4892 159.667 26.9431V22.5335H158.507V20.5107H159.667V20.531Z" fill="white"/>
<path d="M167.784 29.6536C167.244 29.512 166.765 29.3097 166.365 29.0266C165.965 28.7636 165.665 28.4197 165.445 28.0152C165.225 27.6106 165.105 27.1454 165.105 26.6397H168.284C168.304 27.024 168.424 27.3072 168.664 27.5095C168.884 27.7118 169.224 27.8129 169.643 27.8129C169.963 27.8129 170.243 27.7522 170.463 27.6309C170.683 27.5095 170.783 27.3072 170.783 27.0443C170.783 26.8622 170.723 26.7004 170.603 26.5993C170.483 26.4779 170.323 26.397 170.123 26.3363C169.923 26.2756 169.703 26.2149 169.423 26.1745C169.164 26.134 168.884 26.0936 168.584 26.0329C168.204 25.9722 167.824 25.8913 167.444 25.8104C167.065 25.7092 166.705 25.5676 166.405 25.3654C166.105 25.1631 165.845 24.8799 165.645 24.5158C165.445 24.1517 165.345 23.7067 165.345 23.1403C165.345 22.6751 165.445 22.2706 165.665 21.9065C165.885 21.5424 166.185 21.239 166.545 20.9962C166.925 20.7535 167.344 20.5714 167.844 20.4299C168.344 20.3085 168.864 20.2478 169.403 20.2478C170.763 20.2478 171.802 20.4905 172.522 20.976C173.222 21.4615 173.602 22.1492 173.662 23.0392H170.543C170.503 22.6953 170.363 22.4728 170.143 22.3717C169.923 22.2706 169.683 22.2301 169.423 22.2301C169.184 22.2301 168.964 22.2706 168.764 22.3717C168.564 22.4728 168.484 22.6347 168.484 22.8774C168.484 22.9987 168.524 23.1201 168.624 23.201C168.724 23.2819 168.844 23.3426 169.024 23.4033C169.184 23.464 169.384 23.5044 169.603 23.5449C169.823 23.5853 170.063 23.6258 170.323 23.646C170.723 23.7067 171.163 23.7876 171.602 23.8685C172.042 23.9697 172.442 24.1113 172.802 24.3338C173.162 24.5563 173.462 24.8597 173.682 25.244C173.921 25.6283 174.041 26.134 174.041 26.7611C174.041 27.3072 173.921 27.7724 173.702 28.1568C173.482 28.5411 173.162 28.8647 172.762 29.1277C172.362 29.3907 171.902 29.5727 171.363 29.6941C170.823 29.8154 170.263 29.8761 169.643 29.8761C168.944 29.8761 168.344 29.7952 167.784 29.6536Z" fill="white"/>
<path d="M0 0V32H32.4251V0H0ZM16.2125 31.3123C7.69646 31.3123 0.799632 24.4551 0.799632 16C0.799632 7.54488 7.69646 0.687737 16.2125 0.687737C24.7286 0.687737 31.6255 7.54488 31.6255 16C31.6255 24.4551 24.7286 31.3123 16.2125 31.3123Z" fill="white"/>
<path d="M50.9754 31.6359C59.4877 31.6359 66.3883 24.6355 66.3883 16C66.3883 7.36457 59.4877 0.364136 50.9754 0.364136C42.4631 0.364136 35.5625 7.36457 35.5625 16C35.5625 24.6355 42.4631 31.6359 50.9754 31.6359Z" fill="white"/>
</svg>
