<svg width="78" height="105" viewBox="0 0 78 105" fill="none" xmlns="http://www.w3.org/2000/svg">
<path d="M62.8761 24.296C62.8761 10.9442 52.0412 0 38.5801 0C25.119 0 14.2841 10.8349 14.2841 24.296C14.2841 36.8814 23.9151 47.2788 36.2818 48.4826V101.562C36.2818 102.985 37.3765 104.079 38.7988 104.079C40.2217 104.079 41.3157 102.984 41.3157 101.562L41.3165 48.3732C53.3547 47.0601 62.8765 36.7726 62.8765 24.296H62.8761ZM29.1681 29.6589H33.4363C33.4363 31.5193 34.8593 32.9423 36.7198 32.9423H40.5506C42.411 32.9423 43.8341 31.5193 43.8341 29.6589C43.8341 27.7984 42.4111 26.3754 40.5506 26.3754H36.7198C32.5608 26.3754 29.1681 22.9829 29.1681 18.8238C29.1681 14.7746 32.4516 11.4912 36.5007 11.3821V6.89482H40.7689V11.3821C44.8181 11.4913 48.1015 14.7746 48.1015 18.8238H43.8333C43.8333 16.9633 42.4103 15.5403 40.5498 15.5403H36.719C34.8586 15.5403 33.4356 16.9633 33.4356 18.8238C33.4356 20.6842 34.8585 22.1072 36.719 22.1072H40.5498C44.7088 22.1072 48.1015 25.4997 48.1015 29.6589C48.1015 33.708 44.8181 36.9914 40.7689 37.1005V41.5878H36.5007V37.1005C32.4508 36.9913 29.1681 33.708 29.1681 29.6589Z" fill="#FFCC00"/>
<path d="M2.35499 51.4375C1.26026 51.5467 0.385429 52.4223 0.275401 53.5171C0.166235 54.1737 -1.8034 69.0578 6.6238 77.3754C12.2051 82.9567 20.8514 83.9423 26.1044 83.9423C27.4175 83.9423 28.5121 83.8331 29.2778 83.8331L14.6128 69.2766C13.628 68.2918 13.628 66.7596 14.6128 65.7741C15.5976 64.7893 17.1298 64.7893 18.1154 65.7741L32.6711 80.3298C32.9994 76.499 33.3276 64.7891 26.2142 57.6754C17.8963 49.358 3.01261 51.3284 2.35401 51.4376L2.35499 51.4375Z" fill="#FFCC00"/>
<path d="M77.1037 53.5169C76.9945 52.4222 76.1189 51.5474 75.0241 51.4373C74.3675 51.3282 59.4834 49.4678 51.1658 57.785C44.0525 64.8983 44.3806 76.6089 44.709 80.4394L59.2647 65.8836C60.2495 64.8988 61.7816 64.8988 62.7672 65.8836C63.752 66.8684 63.752 68.4006 62.7672 69.3861L48.2107 83.832C48.9772 83.9412 50.0711 83.9412 51.3841 83.9412C56.6371 83.9412 65.1735 82.9564 70.8647 77.3743C79.1826 69.057 77.2131 54.1727 77.1033 53.5161L77.1037 53.5169Z" fill="#FFCC00"/>
</svg>
