<svg width="90" height="85" viewBox="0 0 90 85" fill="none" xmlns="http://www.w3.org/2000/svg">
<path d="M44.698 37.7056C43.115 37.2105 41.7009 36.6908 40.6945 36.2436C36.9382 34.3545 36.0613 31.7508 36.4884 29.9516C36.9492 28.0086 38.8331 26.8477 41.5242 26.8477C46.2533 26.8477 47.1193 30.1769 47.2117 32.0971L57.4826 31.8835C57.3758 26.6568 54.1988 19.282 46.2137 17.1794L46.213 10.7904H35.9421V17.496C31.1989 19.1101 27.6367 22.7506 26.495 27.578C25.1204 33.367 27.5493 41.1295 36.2818 45.5196C37.8875 46.2392 39.6388 46.8916 41.6379 47.5187C47.0471 49.2059 48.5856 52.3065 48.2618 54.4603C47.944 56.5521 45.9875 57.8541 43.1645 57.8541C40.6372 57.8541 38.8096 57.3118 37.7385 56.24C36.3975 54.8932 36.3891 52.8462 36.3891 52.8293L31.255 52.7083L26.1215 52.498C26.0963 53.1361 25.9953 58.8353 30.2798 63.3002C31.846 64.9311 33.735 66.1453 35.9421 66.9523V73.9051H46.2129V67.8604C52.6317 66.7498 57.4759 62.1923 58.415 56.004C59.433 49.3404 55.5842 41.0998 44.6978 37.7062L44.698 37.7056Z" fill="#FFCC00"/>
<path d="M86.978 41.7234H84.6612C84.3207 18.6656 65.4869 0 42.348 0C18.9953 0 0 19.0003 0 42.3496C0 65.699 18.9969 84.6943 42.348 84.6943C56.8722 84.6943 70.2155 77.3785 78.0455 65.134L73.7184 62.3673C66.8389 73.1301 55.1092 79.56 42.3468 79.56C21.8306 79.56 5.14157 62.8644 5.14157 42.3514C5.14157 21.8385 21.8273 5.14124 42.3435 5.14124C62.651 5.14124 79.1842 21.4989 79.5239 41.7252H77.2716C74.6007 41.7252 73.5095 43.6143 74.8452 45.9255C76.181 48.2366 78.3626 52.0207 79.6952 54.3267C81.0336 56.6378 83.2153 56.6378 84.5511 54.3267C85.8869 52.0214 88.0712 48.2366 89.4071 45.9255C90.7338 43.6118 89.6452 41.7227 86.9775 41.7227L86.978 41.7234Z" fill="#FFCC00"/>
</svg>
